<?xml version="1.0" standalone="no"?>
<!DOCTYPE svg PUBLIC "-//W3C//DTD SVG 20010904//EN"
 "http://www.w3.org/TR/2001/REC-SVG-20010904/DTD/svg10.dtd">
<svg version="1.0" xmlns="http://www.w3.org/2000/svg"
 width="1969.000000pt" height="1969.000000pt" viewBox="0 0 1969.000000 1969.000000"
 preserveAspectRatio="xMidYMid meet">
<metadata>
Created by potrace 1.14, written by Peter Selinger 2001-2017
</metadata>
<g transform="translate(0.000000,1969.000000) scale(0.100000,-0.100000)"
fill="#000000" stroke="none">
<path d="M11620 17842 c-41 -32 -192 -143 -335 -248 -143 -105 -577 -424 -965
-709 -388 -285 -721 -530 -741 -544 -20 -14 -340 -249 -709 -521 -370 -272
-677 -498 -682 -501 -6 -4 -10 -245 -11 -604 l-2 -598 -787 -575 -788 -575 0
-2674 0 -2673 205 0 205 0 2 2562 3 2561 582 427 581 428 -1 -2989 -2 -2989
203 0 202 0 0 423 c3 4593 7 5848 21 5861 8 8 264 197 569 421 l555 406 3
-3555 2 -3556 205 0 205 0 0 3965 0 3966 -52 -39 c-29 -21 -354 -258 -723
-527 -368 -269 -695 -507 -725 -530 l-55 -42 2 350 c2 271 5 353 15 363 7 7
32 25 55 41 40 27 387 280 568 413 118 87 439 320 475 345 38 26 1348 979
1465 1065 50 37 102 75 117 84 l27 18 0 -2202 0 -2201 -32 23 c-18 13 -176
128 -352 255 l-320 233 -3 -378 c-2 -207 0 -1463 4 -2790 l6 -2412 204 0 204
0 0 2375 c0 1306 2 2375 5 2375 2 0 68 -46 145 -101 l140 -101 0 -2207 c-1
-1213 0 -2236 0 -2273 l0 -68 200 0 200 0 0 2132 0 2131 23 -20 c12 -11 248
-183 525 -383 l502 -362 0 -82 c0 -64 49 -3404 50 -3413 0 -2 86 -3 191 -3
l191 0 -7 1853 -7 1852 -22 20 c-12 11 -342 252 -734 535 l-711 515 -1 2753
c0 1513 -3 2752 -7 2751 -5 0 -42 -26 -83 -57z"/>
<path d="M2850 6915 l0 -185 189 -2 189 -3 -421 -1222 -422 -1223 -187 0 -188
0 0 -205 0 -205 615 0 615 0 0 205 0 205 -186 0 c-154 0 -185 2 -181 14 3 7
56 169 118 360 l113 346 554 -2 554 -3 104 -330 c57 -181 106 -342 109 -357
l7 -28 -186 0 -186 0 0 -205 0 -205 610 0 610 0 0 205 0 205 -173 0 -174 0
-428 1213 c-235 666 -430 1218 -433 1225 -3 9 38 12 187 12 l191 0 0 185 0
185 -800 0 -800 0 0 -185z m856 -272 c178 -582 382 -1258 380 -1260 -2 -2
-196 -2 -433 -1 l-429 3 161 510 c273 859 265 835 280 835 9 0 24 -31 41 -87z"/>
<path d="M5380 6890 l0 -210 200 0 200 0 0 -1200 0 -1200 -200 0 -200 0 0
-205 0 -205 1140 0 1140 0 0 755 0 755 -220 0 -220 0 0 -550 0 -550 -470 0
-470 0 0 1200 0 1200 190 0 190 0 0 210 0 210 -640 0 -640 0 0 -210z"/>
<path d="M7840 6890 l0 -210 200 0 200 0 0 -1200 0 -1200 -200 0 -200 0 0
-205 0 -205 1140 0 1140 0 0 755 0 755 -220 0 -220 0 0 -550 0 -550 -470 0
-470 0 0 1200 0 1200 190 0 190 0 0 210 0 210 -640 0 -640 0 0 -210z"/>
<path d="M10370 6890 l0 -210 165 0 165 0 0 -1200 0 -1200 -165 0 -165 0 0
-205 0 -205 575 0 575 0 0 205 0 205 -165 0 -165 0 0 1200 0 1200 165 0 165 0
0 210 0 210 -575 0 -575 0 0 -210z"/>
<path d="M11860 6890 l0 -210 200 0 200 0 0 -1200 0 -1200 -200 0 -200 0 0
-205 0 -205 1295 0 1295 0 0 500 0 500 -195 0 -195 0 0 -295 0 -295 -660 0
-660 0 0 520 0 520 575 0 575 0 0 210 0 210 -575 0 -575 0 0 470 0 470 660 0
660 0 0 -280 0 -280 195 0 195 0 0 490 0 490 -1295 0 -1295 0 0 -210z"/>
<path d="M14730 6891 l0 -211 210 0 210 0 0 -1200 0 -1200 -210 0 -210 0 0
-206 0 -205 803 4 c851 4 902 7 1150 57 652 132 1018 583 1088 1343 17 181 7
490 -20 634 -74 398 -279 732 -567 930 -170 116 -336 186 -520 217 -200 35
-304 39 -1116 43 l-818 5 0 -211z m1705 -236 c348 -52 521 -160 678 -424 133
-224 184 -452 174 -786 -8 -284 -41 -434 -137 -630 -67 -134 -133 -223 -218
-291 -227 -180 -508 -244 -1074 -244 l-218 0 0 1201 0 1201 343 -5 c242 -4
374 -10 452 -22z"/>
<path d="M5985 3165 c-252 -55 -429 -215 -510 -460 -23 -69 -29 -124 -29 -235
2 -353 216 -621 548 -685 105 -21 283 -13 371 15 180 58 301 153 398 312 112
185 124 458 30 672 -62 141 -205 280 -349 341 -117 49 -330 68 -459 40z m267
-176 c168 -36 315 -185 363 -369 25 -95 17 -252 -18 -343 -50 -130 -139 -229
-255 -285 -63 -30 -87 -36 -165 -40 -196 -10 -342 67 -436 231 -70 123 -93
304 -57 446 45 178 184 323 343 360 55 13 164 13 225 0z"/>
<path d="M16980 3166 c-75 -20 -140 -58 -190 -113 -65 -71 -92 -144 -92 -244
2 -170 82 -281 252 -347 30 -12 118 -40 195 -63 240 -71 287 -108 289 -229 2
-176 -189 -280 -369 -201 -55 24 -125 88 -164 150 -26 40 -31 58 -31 108 l0
59 -85 0 -85 0 0 -248 0 -248 85 0 85 0 0 55 0 56 61 -42 c94 -64 156 -83 274
-83 114 -1 181 17 253 66 126 87 184 204 176 355 -7 128 -70 244 -167 310 -50
33 -170 76 -332 118 -55 14 -124 37 -153 51 -138 67 -134 244 7 307 65 30 187
29 255 -2 105 -46 158 -106 160 -179 l2 -47 82 -2 82 -3 0 208 0 208 -82 -1
-83 0 -1 -38 c-1 -46 -9 -55 -31 -35 -81 71 -267 106 -393 74z"/>
<path d="M2200 3076 l0 -85 88 -3 87 -3 0 -510 0 -510 -87 -3 -88 -3 0 -84 0
-85 278 0 277 0 0 85 1 85 -88 0 -88 0 0 178 0 177 148 3 c173 2 206 6 291 35
259 88 330 488 124 695 -93 93 -181 108 -630 111 l-313 2 0 -85z m732 -113
c114 -51 160 -228 95 -363 -42 -86 -104 -110 -304 -117 l-143 -6 0 258 0 258
153 -5 c125 -4 160 -8 199 -25z"/>
<path d="M3770 3076 l0 -85 93 -3 92 -3 0 -510 0 -510 -92 -3 -93 -3 0 -84 0
-85 280 0 280 0 1 23 c0 12 1 49 2 82 l1 60 -86 3 -87 3 -1 234 -1 235 98 0
98 -1 145 -295 c80 -163 149 -307 153 -320 9 -24 9 -24 157 -24 l148 0 4 75
c2 42 2 80 0 85 -2 6 -41 10 -86 10 l-82 0 -120 248 c-115 236 -120 247 -100
256 12 5 44 19 71 31 104 45 168 132 183 250 21 162 -47 304 -174 366 -75 36
-185 46 -546 48 l-338 2 0 -85z m750 -105 c68 -36 100 -92 100 -176 0 -77 -33
-133 -95 -165 -45 -22 -64 -25 -207 -28 l-157 -4 -1 197 0 197 168 -4 c110 -3
175 -9 192 -17z"/>
<path d="M7430 3077 l0 -86 88 -3 87 -3 1 -512 0 -513 -88 0 -88 0 0 -85 0
-85 277 2 278 3 0 83 1 82 -88 0 -88 0 2 178 3 177 70 1 c261 4 308 10 394 50
135 61 212 195 212 368 0 133 -35 227 -114 309 -96 98 -145 108 -594 114
l-353 5 0 -85z m741 -118 c108 -60 149 -230 86 -359 -42 -86 -105 -110 -304
-117 l-143 -5 0 257 0 258 159 -5 c143 -5 163 -8 202 -29z"/>
<path d="M9029 3133 c-1 -16 -2 -54 -2 -86 l-2 -57 88 0 c48 0 87 -3 88 -7 4
-33 3 -1007 -1 -1014 -3 -4 -44 -9 -90 -11 l-85 -3 2 -70 c1 -38 2 -76 2 -83
1 -10 118 -12 567 -10 l566 3 0 195 c0 107 -1 201 -1 208 -1 10 -21 12 -83 10
l-82 -3 0 -122 0 -123 -293 0 -293 0 0 225 0 225 253 2 252 3 1 83 1 82 -254
0 -253 0 0 205 0 205 293 -2 292 -3 1 -115 0 -115 83 0 83 0 1 200 0 200 -567
3 -566 2 -1 -27z"/>
<path d="M10690 3076 l0 -86 89 0 c62 0 90 -4 93 -12 4 -11 3 -988 -1 -1010 0
-5 -41 -8 -91 -8 l-90 0 0 -85 0 -85 280 0 280 0 1 25 c0 14 1 51 2 83 l0 57
-86 3 -87 3 0 234 0 235 98 0 97 0 135 -276 c74 -152 144 -296 155 -320 l20
-44 148 0 147 0 0 85 0 85 -83 0 -83 0 -121 248 c-115 236 -119 247 -99 256
105 45 132 61 170 99 59 61 87 136 87 239 0 111 -29 185 -102 256 -86 84 -171
98 -621 101 l-338 2 0 -85z m757 -109 c56 -29 87 -81 91 -152 6 -88 -20 -144
-83 -181 -46 -27 -55 -28 -211 -32 l-164 -5 0 198 0 197 168 -4 c130 -3 174
-8 199 -21z"/>
<path d="M12328 3153 c-2 -5 -3 -120 -3 -258 l1 -250 82 -3 82 -3 0 176 0 175
145 0 145 0 0 -515 0 -515 -90 0 -90 0 0 -85 0 -85 280 0 280 0 0 85 0 85 -90
0 -90 0 0 515 0 516 143 -3 142 -3 0 -170 0 -170 83 -3 82 -3 0 261 0 260
-549 0 c-303 0 -551 -3 -553 -7z"/>
<path d="M13947 3153 c-2 -5 -3 -42 -3 -83 l1 -75 73 -3 72 -3 1 -32 c0 -40 0
-932 -1 -969 0 -28 0 -28 -73 -28 l-73 0 1 -82 0 -83 250 -3 250 -2 0 85 1 85
-73 0 -73 0 0 515 0 514 73 3 72 3 0 80 0 80 -247 3 c-136 1 -248 -1 -251 -5z"/>
<path d="M14995 3075 l0 -85 86 0 c74 0 87 -2 90 -17 4 -15 3 -980 0 -1005 -1
-4 -40 -9 -88 -10 l-87 -3 1 -70 c1 -38 1 -76 2 -82 1 -10 121 -13 566 -13
l565 0 0 210 0 210 -82 0 -83 0 0 -122 0 -123 -292 -3 -293 -2 0 225 0 225
253 2 252 3 1 83 2 82 -254 0 -254 0 0 205 0 205 293 -2 292 -3 0 -115 1 -115
81 -3 82 -3 3 38 c2 21 2 113 0 206 l-3 167 -567 0 -567 0 0 -85z"/>
</g>
</svg>
